<?xml version="1.0" encoding="UTF-8" standalone="no"?>
<!DOCTYPE svg PUBLIC "-//W3C//DTD SVG 1.1//EN"
 "http://www.w3.org/Graphics/SVG/1.1/DTD/svg11.dtd">
<!-- Generated by graphviz version 2.36.0 (20140111.2315)
 -->
<!-- Title: %3 Pages: 1 -->
<svg width="134pt" height="116pt"
 viewBox="0.00 0.00 134.00 116.00" xmlns="http://www.w3.org/2000/svg" xmlns:xlink="http://www.w3.org/1999/xlink">
<g id="graph0" class="graph" transform="scale(1 1) rotate(0) translate(4 112)">
<title>%3</title>
<polygon fill="white" stroke="none" points="-4,4 -4,-112 130,-112 130,4 -4,4"/>
<!-- a -->
<g id="node1" class="node"><title>a</title>
<ellipse fill="none" stroke="black" cx="27" cy="-90" rx="27" ry="18"/>
<text text-anchor="middle" x="27" y="-86.3" font-family="Times,serif" font-size="14.00">a</text>
</g>
<!-- add -->
<g id="node3" class="node"><title>add</title>
<ellipse fill="none" stroke="black" cx="63" cy="-18" rx="27" ry="18"/>
<text text-anchor="middle" x="63" y="-14.3" font-family="Times,serif" font-size="14.00">add</text>
</g>
<!-- a&#45;&gt;add -->
<g id="edge1" class="edge"><title>a&#45;&gt;add</title>
<path fill="none" stroke="black" d="M35.3496,-72.7646C39.7115,-64.2831 45.1469,-53.7144 50.0413,-44.1974"/>
<polygon fill="black" stroke="black" points="53.2346,-45.6409 54.6957,-35.1473 47.0096,-42.4395 53.2346,-45.6409"/>
</g>
<!-- b -->
<g id="node2" class="node"><title>b</title>
<ellipse fill="none" stroke="black" cx="99" cy="-90" rx="27" ry="18"/>
<text text-anchor="middle" x="99" y="-86.3" font-family="Times,serif" font-size="14.00">b</text>
</g>
<!-- b&#45;&gt;add -->
<g id="edge2" class="edge"><title>b&#45;&gt;add</title>
<path fill="none" stroke="black" d="M90.6504,-72.7646C86.2885,-64.2831 80.8531,-53.7144 75.9587,-44.1974"/>
<polygon fill="black" stroke="black" points="78.9904,-42.4395 71.3043,-35.1473 72.7654,-45.6409 78.9904,-42.4395"/>
</g>
</g>
</svg>
